<svg xmlns="http://www.w3.org/2000/svg" width="960" height="158" viewBox="0 0 960 158" role="img" aria-label="MotifML IR review visualization"><style>text { font-family: monospace; dominant-baseline: middle; } line, rect, circle, polygon { vector-effect: non-scaling-stroke; }</style><text x="12" y="20" fill="#0f172a" font-size="16" font-weight="600">IR Timeline Plot</text>
<text x="12" y="38" fill="#475569" font-size="11">Written bars with per-bar counts and onset ticks.</text>
<line x1="12" y1="44" x2="936" y2="44" stroke="#e2e8f0" stroke-width="1" />
<rect x="240" y="68" width="348" height="34" fill="#f8fafc" stroke="none" />
<line x1="240" y1="68" x2="240" y2="102" stroke="#cbd5e1" stroke-width="1" />
<text x="246" y="58" fill="#334155" font-size="10">bar 0 (0/1 + 1/1)</text>
<rect x="588" y="68" width="348" height="34" fill="#ffffff" stroke="none" />
<line x1="588" y1="68" x2="588" y2="102" stroke="#cbd5e1" stroke-width="1" />
<text x="594" y="58" fill="#334155" font-size="10">bar 1 (1/1 + 1/1)</text>
<line x1="936" y1="68" x2="936" y2="102" stroke="#cbd5e1" stroke-width="1" />
<line x1="240" y1="112" x2="240" y2="124" stroke="#1f2937" stroke-width="1.5" />
<line x1="240" y1="112" x2="240" y2="124" stroke="#1f2937" stroke-width="1.5" />
<line x1="240" y1="112" x2="240" y2="124" stroke="#1f2937" stroke-width="1.5" />
<line x1="588" y1="112" x2="588" y2="124" stroke="#1f2937" stroke-width="1.5" />
<line x1="588" y1="112" x2="588" y2="124" stroke="#1f2937" stroke-width="1.5" />
<line x1="588" y1="112" x2="588" y2="124" stroke="#1f2937" stroke-width="1.5" />
<text x="246" y="88" fill="#0f172a" font-size="11">bar 0 | onsets=3 | notes=4</text>
<text x="594" y="88" fill="#0f172a" font-size="11">bar 1 | onsets=3 | notes=3</text></svg>
